<?xml version="1.0" encoding="iso-8859-1"?>
<!-- Generator: Adobe Illustrator 19.0.0, SVG Export Plug-In . SVG Version: 6.00 Build 0)  -->
<svg version="1.1" id="Layer_1" xmlns="http://www.w3.org/2000/svg" xmlns:xlink="http://www.w3.org/1999/xlink" x="0px" y="0px"
	 viewBox="0 0 496.3 496.3" style="enable-background:new 0 0 496.3 496.3;" xml:space="preserve">
<path style="fill:#4ABC96;" d="M248.15,0c-137,0-248.1,111.1-248.1,248.1s111.1,248.1,248.1,248.1s248.1-111.1,248.1-248.1
	S385.15,0,248.15,0z"/>
<rect x="175.85" y="186.4" style="fill:#42230E;" width="144.7" height="167.3"/>
<g>
	<path style="fill:#E5BDA3;" d="M287.05,282.1h-77.8c12.1,36.6,1,53.3,1,53.3l26.9,6.1h22l26.9-6.1
		C286.05,335.4,274.95,318.7,287.05,282.1z"/>
	<path style="fill:#E5BDA3;" d="M247.95,317l-37.7,18.4c0,0,16.8,28.1,37.6,28.1s38.2-28.1,38.2-28.1L247.95,317z"/>
</g>
<path style="fill:#F4C9AB;" d="M320.25,199c0-88.8-32.3-94.2-72.1-94.2s-72.1,5.4-72.1,94.2c0,30-3.3,41.8,5.2,59.9
	c18.8,40,53,50.6,66.9,50.6c13.9,0,48.2-10.6,66.9-50.6C323.65,240.8,320.25,229.1,320.25,199z"/>
<path style="fill:#EADAD0;" d="M262.35,197.6c0,0,5-1.6,7.8-1c0,0,17.3,5.5,29.3-2.1C299.45,194.5,283.75,176.2,262.35,197.6z"/>
<circle style="fill:#2B1407;" cx="283.25" cy="192.5" r="6.9"/>
<g>
	<path style="fill:#191919;" d="M262.35,197.6c19.7-19.7,34.9-5.5,37.1-3.1h2.9C302.35,188.5,283.65,172.5,262.35,197.6z"/>
	<path style="fill:#191919;" d="M270.15,196.6c-2.9-0.5-7.8,1-7.8,1s5-0.5,7.8,0c0,0,16,10.1,29.3-3.2
		C287.45,202.1,270.15,196.6,270.15,196.6z"/>
</g>
<path style="fill:#42230E;" d="M303.75,175.7c-0.3-0.6-2.1-1.9-3.3-2.7c-10.6-6.5-25.6-2-33.1,1.7c-3.3,1.6-5.9,3.1-5.1,4.5
	c0.9,1.6,7.2-0.1,7.2-0.1c17.5-5.8,23-6.2,27.6-4.9C301.95,175.6,304.05,176.3,303.75,175.7z"/>
<path style="fill:#EADAD0;" d="M196.85,194.5c12,7.6,29.3,2.1,29.3,2.1c2.9-0.5,7.8,1,7.8,1C212.55,176.2,196.85,194.5,196.85,194.5
	z"/>
<circle style="fill:#2B1407;" cx="213.05" cy="192.5" r="6.9"/>
<g>
	<path style="fill:#191919;" d="M193.95,194.5h2.9c2.2-2.3,17.4-16.6,37.1,3.1C212.65,172.5,193.95,188.5,193.95,194.5z"/>
	<path style="fill:#191919;" d="M226.15,196.6c0,0-17.3,5.5-29.3-2.1c13.3,13.2,29.3,3.2,29.3,3.2c2.9-0.5,7.8,0,7.8,0
		S229.05,196.1,226.15,196.6z"/>
</g>
<path style="fill:#42230E;" d="M228.95,174.8c-7.5-3.7-22.5-8.2-33.1-1.7c-1.2,0.7-3,2.1-3.3,2.7c-0.3,0.6,1.7-0.1,6.6-1.5
	c4.6-1.3,10.1-0.9,27.6,4.9c0,0,6.3,1.7,7.2,0.1C234.85,177.9,232.25,176.5,228.95,174.8z"/>
<path style="fill:#E2877D;" d="M260.55,259.3c-3.5-0.4-12.4,2.3-12.4,2.3s-9-2.7-12.5-2.3c-5.7,0.7-14.2,6.7-14.2,8
	c0,0,11.9,7.5,26.7,7.5c14.8,0,26.7-7.5,26.7-7.5S266.25,260,260.55,259.3z"/>
<path style="fill:#D37D76;" d="M255.45,266.7c-2.3-0.1-5.3-0.2-7.3-0.2c-2.3,0-5.7,0.1-8.3,0.3c-15.6,0.7-18.3,0.6-18.3,0.6
	s11.9,9.2,26.7,9.2c14.8,0,26.7-9.2,26.7-9.2S271.55,267.4,255.45,266.7z"/>
<path style="fill:#E2A379;" d="M285.95,335.4c0,0-8.9,17.3-38.1,17.3s-37.5-17.3-37.5-17.3s-7,54.7,37.9,54.7
	S285.95,335.4,285.95,335.4z"/>
<g>
	<path style="fill:#D8A684;" d="M231.75,235.4c0,0-4.9,13.3,6.8,11.2C238.55,246.6,230.25,246.4,231.75,235.4z"/>
	<path style="fill:#D8A684;" d="M264.55,235.4c1.2,11.7-5.5,11.4-6.6,11.2C269.35,248.6,264.55,235.4,264.55,235.4z M257.95,246.6
		c-0.1,0-0.1,0-0.2,0C257.75,246.6,257.75,246.6,257.95,246.6z"/>
	<path style="fill:#D8A684;" d="M241.25,242.6c6.9,12.1,13.9,0,13.9,0C247.45,250.8,241.25,242.6,241.25,242.6z"/>
	<path style="fill:#D8A684;" d="M240.45,241.7c-0.9,0.8-1,2.3-0.2,3.2s2.3,1,3.2,0.2L240.45,241.7z"/>
	<path style="fill:#D8A684;" d="M255.85,241.7l-3.1,3.4c0.9,0.8,2.4,0.8,3.2-0.2C256.95,244,256.85,242.5,255.85,241.7z"/>
	<path style="fill:#D8A684;" d="M254.35,208.2c0,0,0.4,12,5.2,19L254.35,208.2z"/>
</g>
<path style="fill:#E5BDA3;" d="M394.85,382.8c-7.3-27.3-69.9-49.3-147.1-49.3s-139.1,22.1-146.4,49.3c-3.3,12.2-7,35.2-10.1,57.5
	c42.7,34.9,97.4,55.9,156.9,55.9s114.1-21,156.9-55.9C401.85,417.9,398.15,394.9,394.85,382.8z"/>
<g>
	<path style="fill:#EB9783;" d="M402.35,422c-2.5-15.9-5.1-30.4-7.4-39.2c0,0-62.4,29.6-85.7,38.6s-61,10.2-61,10.2l0,0
		c0,0-37.8-1.2-61-10.2s-85.7-38.6-85.7-38.6c-2.4,8.8-5,23.4-7.4,39.2c-0.9,6,50.3,24.3,50.3,24.3l-5.1,24.8
		c32.9,16.1,69.9,25.2,109,25.2l0,0c39.1,0,76.1-9,109-25.2l-5.1-24.8C352.05,446.2,403.25,428,402.35,422z"/>
	<path style="fill:#EB9783;" d="M101.45,382.8c-3.3,12.2,73.6,33.7,73.6,33.7l8.7-77.5C138.45,347.1,106.55,363.6,101.45,382.8z"/>
	<path style="fill:#EB9783;" d="M394.95,382.8c-5.1-19.1-37.1-35.7-82.3-43.9l8.7,77.5C321.35,416.4,398.15,394.9,394.95,382.8z"/>
</g>
<path style="fill:#542C11;" d="M190.45,159.3h-37.3c0,0-29.3,127.9,1.4,210.8c11.3,30.7,26.7,63.5,26.7,63.5
	C174.45,362.1,190.45,159.3,190.45,159.3z"/>
<path style="fill:#49260E;" d="M342.45,159.3h-37.3c0,0,15.9,202.8,9.3,274.3c0,0,15.3-32.8,26.7-63.5
	C371.75,287.2,342.45,159.3,342.45,159.3z"/>
<path style="fill:#542C11;" d="M361.85,235.8c-10-36.7-4.7-50.5-19.3-92c-21.7-61.6-43.1-65.2-90.1-65.2l0,0l0,0
	c-12.1,8.5,20.2,42.6,14.1,26.1C313.85,233.3,361.85,235.8,361.85,235.8z"/>
<path style="fill:#663310;" d="M262.65,79.1c-8.5-0.8-19.4-0.5-19.4-0.5l0,0l0,0c-47,0-68.4,3.6-90.1,65.2
	c-14.6,41.5-9.3,55.3-19.3,92c0,0,150.2-75.2,150.2-131C284.05,86.9,271.15,79.9,262.65,79.1z"/>
<g>
</g>
<g>
</g>
<g>
</g>
<g>
</g>
<g>
</g>
<g>
</g>
<g>
</g>
<g>
</g>
<g>
</g>
<g>
</g>
<g>
</g>
<g>
</g>
<g>
</g>
<g>
</g>
<g>
</g>
</svg>
